<svg width="12" height="12" viewBox="0 0 12 12" fill="none" xmlns="http://www.w3.org/2000/svg">
<path d="M8.9936 3.72651C9.37651 3.72651 9.68693 3.41609 9.68693 3.03318C9.68693 2.65026 9.37651 2.33984 8.9936 2.33984C8.61068 2.33984 8.30026 2.65026 8.30026 3.03318C8.30026 3.41609 8.61068 3.72651 8.9936 3.72651Z" fill="white"/>
<path fill-rule="evenodd" clip-rule="evenodd" d="M3.11115 5.99973C3.11115 7.59295 4.40681 8.88862 6.00003 8.88862C7.59326 8.88862 8.88892 7.59295 8.88892 5.99973C8.88892 4.40651 7.59326 3.11084 6.00003 3.11084C4.40681 3.11084 3.11115 4.40651 3.11115 5.99973ZM4.55557 6.00033C4.55557 5.20372 5.20341 4.55588 6.00002 4.55588C6.79663 4.55588 7.44446 5.20372 7.44446 6.00033C7.44446 6.79694 6.79663 7.44477 6.00002 7.44477C5.20341 7.44477 4.55557 6.79694 4.55557 6.00033Z" fill="white"/>
<path fill-rule="evenodd" clip-rule="evenodd" d="M3.11112 11.7782H8.8889C10.3738 11.7782 11.7778 10.3742 11.7778 8.88932V3.11155C11.7778 1.62666 10.3738 0.222656 8.8889 0.222656H3.11112C1.62623 0.222656 0.222229 1.62666 0.222229 3.11155V8.88932C0.222229 10.3742 1.62623 11.7782 3.11112 11.7782ZM1.66669 3.11123C1.66669 2.43595 2.43585 1.66678 3.11113 1.66678H8.88891C9.56419 1.66678 10.3334 2.43595 10.3334 3.11123V8.889C10.3334 9.56428 9.56419 10.3334 8.88891 10.3334H3.11113C2.42285 10.3334 1.66669 9.57728 1.66669 8.889V3.11123Z" fill="white"/>
</svg>
