<svg width="298" height="298" viewBox="0 0 298 298" fill="none" xmlns="http://www.w3.org/2000/svg">
<g clip-path="url(#clip0_2147_1648)">
<rect width="298" height="298" fill="white"/>
<rect width="298" height="298" transform="matrix(-1 0 0 1 298 0)" fill="#191919"/>
<g filter="url(#filter0_d_2147_1648)">
<path d="M87.3832 168.59H85.6932C83.8732 168.59 83.3532 169.11 83.3532 170.93V197.19C83.3532 200.96 82.3132 202 78.5432 202H70.2232C66.4532 202 65.4132 200.96 65.4132 197.19V109.31C65.4132 105.54 66.4532 104.5 70.2232 104.5H87.3832C107.143 104.5 116.113 111.65 116.113 129.2V143.89C116.113 161.44 107.143 168.59 87.3832 168.59ZM83.3532 125.04V148.05C83.3532 149.87 83.8732 150.39 85.6932 150.39H88.4232C94.7932 150.39 97.6532 147.79 97.6532 141.16V131.93C97.6532 125.3 94.7932 122.7 88.4232 122.7H85.6932C83.8732 122.7 83.3532 123.22 83.3532 125.04ZM164.798 147.66C163.758 148.7 163.628 149.22 164.018 150.52L176.238 194.98C177.538 199.66 176.108 202 171.038 202H164.668C160.768 202 159.468 200.96 158.558 197.71L149.198 164.04C148.808 162.61 148.158 162.48 146.988 163.52L141.788 168.59C140.358 169.89 140.228 170.41 140.228 172.49V197.19C140.228 200.96 139.188 202 135.418 202H127.098C123.328 202 122.288 200.96 122.288 197.19V109.31C122.288 105.54 123.328 104.5 127.098 104.5H135.158C138.928 104.5 139.968 105.54 139.968 109.31V142.72C139.968 143.76 140.358 144.02 141.008 144.02C141.658 144.02 142.048 143.89 142.958 143.11L148.418 138.17C153.748 133.36 154.528 131.54 154.528 122.44V109.31C154.528 105.54 155.568 104.5 159.338 104.5H167.658C171.428 104.5 172.468 105.54 172.468 109.31V122.44C172.468 137.52 171.688 140.12 164.798 147.66ZM215.091 197.19V181.98C215.091 177.43 214.831 176 212.881 172.49L209.761 166.9C208.331 164.56 207.551 164.17 205.211 164.17H202.871C201.051 164.17 200.531 164.69 200.531 166.51V197.19C200.531 200.96 199.491 202 195.721 202H187.401C183.631 202 182.591 200.96 182.591 197.19V109.31C182.591 105.54 183.631 104.5 187.401 104.5H204.561C224.321 104.5 233.291 111.26 233.291 127.9V137.26C233.291 146.62 231.861 152.73 226.531 157.02C225.881 157.41 225.751 157.8 225.751 158.19C225.751 158.58 225.881 158.97 226.271 159.62L229.911 166.25C232.641 171.32 233.031 173.4 233.031 180.29V197.19C233.031 200.96 231.991 202 228.221 202H219.901C216.131 202 215.091 200.96 215.091 197.19ZM200.531 124.39V144.02C200.531 145.84 201.051 146.36 202.871 146.36H205.601C211.711 146.36 214.831 143.63 214.831 137.39V130.63C214.831 124.52 211.971 122.05 205.601 122.05H202.871C201.051 122.05 200.531 122.57 200.531 124.39Z" fill="white"/>
</g>
</g>
<defs>
<filter id="filter0_d_2147_1648" x="63.4132" y="104.5" width="171.878" height="101.5" filterUnits="userSpaceOnUse" color-interpolation-filters="sRGB">
<feFlood flood-opacity="0" result="BackgroundImageFix"/>
<feColorMatrix in="SourceAlpha" type="matrix" values="0 0 0 0 0 0 0 0 0 0 0 0 0 0 0 0 0 0 127 0" result="hardAlpha"/>
<feOffset dy="2"/>
<feGaussianBlur stdDeviation="1"/>
<feComposite in2="hardAlpha" operator="out"/>
<feColorMatrix type="matrix" values="0 0 0 0 0.999691 0 0 0 0 0.999691 0 0 0 0 0.999691 0 0 0 0.2 0"/>
<feBlend mode="normal" in2="BackgroundImageFix" result="effect1_dropShadow_2147_1648"/>
<feBlend mode="normal" in="SourceGraphic" in2="effect1_dropShadow_2147_1648" result="shape"/>
</filter>
<clipPath id="clip0_2147_1648">
<rect width="298" height="298" fill="white"/>
</clipPath>
</defs>
</svg>