<svg width="13" height="13" viewBox="0 0 13 13" fill="none" xmlns="http://www.w3.org/2000/svg">
<path d="M1.72223 3.22266C2.55066 3.22266 3.22223 2.55108 3.22223 1.72266C3.22223 0.894229 2.55066 0.222656 1.72223 0.222656C0.893802 0.222656 0.222229 0.894229 0.222229 1.72266C0.222229 2.55108 0.893802 3.22266 1.72223 3.22266Z" fill="white"/>
<path d="M2.97223 4.22266H0.472229C0.334229 4.22266 0.222229 4.33466 0.222229 4.47266V11.9727C0.222229 12.1107 0.334229 12.2227 0.472229 12.2227H2.97223C3.11023 12.2227 3.22223 12.1107 3.22223 11.9727V4.47266C3.22223 4.33466 3.11023 4.22266 2.97223 4.22266Z" fill="white"/>
<path d="M10.4207 3.87819C9.35223 3.51219 8.01573 3.83369 7.21423 4.41019C7.18673 4.30269 7.08873 4.22269 6.97223 4.22269H4.47223C4.33423 4.22269 4.22223 4.33469 4.22223 4.47269V11.9727C4.22223 12.1107 4.33423 12.2227 4.47223 12.2227H6.97223C7.11023 12.2227 7.22223 12.1107 7.22223 11.9727V6.58269C7.62623 6.23469 8.14673 6.12369 8.57273 6.30469C8.98573 6.47919 9.22223 6.90519 9.22223 7.47269V11.9727C9.22223 12.1107 9.33423 12.2227 9.47223 12.2227H11.9722C12.1102 12.2227 12.2222 12.1107 12.2222 11.9727V6.96919C12.1937 4.91469 11.2272 4.15419 10.4207 3.87819Z" fill="white"/>
</svg>
